<svg width="22" height="31" viewBox="0 0 22 31" fill="none" xmlns="http://www.w3.org/2000/svg">
<path d="M2.94925 17.1751L1.89488 23.2323C1.87747 23.3156 1.84515 23.3913 1.79541 23.4493C1.41992 23.9412 1.18368 24.3625 1.11405 24.7031C1.06432 24.9554 1.11405 25.1572 1.28066 25.3162L5.39867 29.4939C5.65977 29.7487 5.96564 29.9102 6.3287 29.9757C6.72657 30.0514 7.1891 30.0085 7.72126 29.8622C7.72872 29.8622 7.74116 29.8572 7.7511 29.8572C7.95253 29.8017 8.21861 29.7361 8.46976 29.673C9.57387 29.4006 10.5362 29.1609 11.4314 28.3385L12.5803 27.1225C12.5927 27.1023 12.6102 27.0846 12.6251 27.067C12.6425 27.0493 12.7544 26.9358 12.9061 26.7895C13.6919 26.0099 14.6642 25.0487 14.0723 24.2061L13.6123 23.7394C13.3885 23.9564 13.1523 24.1708 12.926 24.3777C12.7196 24.5618 12.5256 24.7334 12.3466 24.915C12.1576 25.1068 11.8492 25.1068 11.6602 24.915C11.4712 24.7208 11.4712 24.4105 11.6602 24.2188C11.8368 24.0371 12.0581 23.8403 12.2844 23.636C13.0627 22.9397 13.9555 22.1425 13.4755 21.4462L13.0205 20.9845C12.9956 20.9593 12.9757 20.929 12.9533 20.9013C12.6922 21.1737 12.4038 21.4336 12.1228 21.6859C11.9164 21.87 11.7224 22.0416 11.5433 22.2232C11.3519 22.4175 11.046 22.4175 10.857 22.2232C10.6655 22.0315 10.6655 21.7187 10.857 21.5269C11.0336 21.3478 11.2549 21.1485 11.4812 20.9442C12.2595 20.2479 13.1523 19.4507 12.6723 18.7544L12.2172 18.2927C12.1849 18.2599 12.1601 18.2246 12.1377 18.1868L10.8023 19.5415C10.6108 19.7332 10.305 19.7332 10.116 19.5415C9.92698 19.3472 9.92698 19.0369 10.116 18.8452L12.6201 16.3048C13.2194 15.6968 13.3562 15.0636 13.1995 14.5842C13.1423 14.4076 13.0453 14.2537 12.926 14.1301C12.8638 14.0671 12.7942 14.0116 12.7171 13.9636H12.7146C12.6773 13.9813 12.6499 13.9434 12.6151 13.9081C12.5728 13.8879 12.5256 13.8678 12.4808 13.8526C12.0656 13.7139 11.5259 13.8123 10.9789 14.279C10.9714 14.2865 10.9639 14.2941 10.9565 14.2992C10.8968 14.3496 10.8371 14.4051 10.7774 14.4657L5.5802 19.7458C5.39121 19.9376 5.08285 19.9376 4.89386 19.7458C4.71979 19.5693 4.70487 19.2968 4.8491 19.1025L2.94925 17.1751ZM6.23669 17.6873L6.4033 17.5182L9.83249 14.0393C9.47688 13.8728 9.14615 13.6382 8.85272 13.3405C7.54719 12.016 7.54719 9.87671 8.85272 8.55225C10.1582 7.22778 12.267 7.22778 13.5725 8.55225C14.878 9.87671 14.878 12.016 13.5725 13.3405C13.5626 13.3506 13.5501 13.3632 13.5402 13.3733C13.5651 13.396 13.5924 13.4212 13.6173 13.4465C13.7242 13.5549 13.8162 13.6735 13.8983 13.7996L18.1506 9.48568C17.499 8.82471 17.499 7.74495 18.1506 7.08146L14.9825 3.86743C14.331 4.5284 13.2666 4.5284 12.6126 3.86743L3.79971 12.8082C4.45123 13.4692 4.45123 14.5489 3.79971 15.2124L6.23669 17.6873ZM13.7118 16.5419C13.5974 16.7034 13.4656 16.8648 13.3089 17.0212L12.8116 17.5258L12.8066 17.5132C12.8439 17.5334 12.8762 17.5586 12.911 17.5939L13.386 18.0758C13.4109 18.101 13.4357 18.1338 13.4556 18.1641C13.9903 18.9058 13.9057 19.5693 13.5427 20.1747C13.6098 20.2 13.672 20.2378 13.7192 20.2882L14.1942 20.7701C14.2191 20.7953 14.2439 20.8281 14.2638 20.8584C14.8383 21.6606 14.694 22.3595 14.2638 22.9977C14.2837 23.0103 14.3011 23.028 14.321 23.0482L14.796 23.53C14.8208 23.5553 14.8457 23.5881 14.8656 23.6183C15.9697 25.1497 14.6542 26.4489 13.5974 27.4984L13.3238 27.7759L12.1451 29.0297L12.1078 29.0675C11.0286 30.0615 9.95682 30.3264 8.72092 30.6317C8.51452 30.6821 8.30315 30.7376 8.01469 30.8108C8.00723 30.8108 8.00226 30.8158 7.9948 30.8158C7.32587 31 6.71663 31.0454 6.17204 30.947C5.6175 30.8461 5.13756 30.5938 4.7372 30.1952L0.626653 26.0225C0.208884 25.6164 0.0696281 25.1118 0.184017 24.5164C0.276026 24.0371 0.547078 23.5098 0.97728 22.9397L2.07641 16.6226V16.5974C2.08636 16.5192 2.10128 16.4309 2.11868 16.335L0 14.1856L13.9828 0L22 8.13346L13.7118 16.5419Z" fill="black"/>
</svg>
