<svg width="32" height="19" viewBox="0 0 32 19" fill="none" xmlns="http://www.w3.org/2000/svg">
<path d="M25.2816 1.23568L26.9608 5.61313L31.2434 6.0394C31.4632 6.06861 31.6556 6.19169 31.7892 6.36832C31.9235 6.54634 31.9984 6.77859 31.9847 7.02476L31.9803 7.08387C31.9678 7.19513 31.9384 7.30013 31.8954 7.3954L31.8754 7.43504C31.8385 7.50666 31.7929 7.57272 31.7411 7.63044L28.4764 10.8077L29.4293 15.4507C29.4818 15.7025 29.4362 15.9563 29.3213 16.1593C29.207 16.361 29.0215 16.5168 28.7948 16.5738C28.6831 16.6016 28.5688 16.6037 28.4601 16.5821C28.3546 16.5613 28.2541 16.5175 28.1641 16.4549L24.506 14.0203L22.7986 15.1566L22.572 14.0711L24.2587 12.948C24.3328 12.8979 24.4177 12.8712 24.5044 12.8708C24.5912 12.8705 24.6763 12.8964 24.7508 12.946L28.4408 15.4021L27.4828 10.736C27.446 10.5511 27.4972 10.3508 27.6339 10.2173L30.8718 7.06927L26.6192 6.64369C26.5281 6.64083 26.4396 6.6089 26.3644 6.5517C26.2891 6.4945 26.2301 6.41444 26.1945 6.32103L24.506 1.91925L23.3857 4.84125L22.3852 4.74112L23.731 1.2329C23.8215 0.99508 23.9908 0.820538 24.1906 0.730834C24.3911 0.640434 24.6221 0.636261 24.8363 0.737787L24.8731 0.757258C24.9606 0.803849 25.038 0.866434 25.1017 0.938058C25.1785 1.02081 25.2385 1.12373 25.2816 1.23568ZM16.4303 0.319166L18.7177 6.28418L24.5203 6.86413C24.7764 6.88847 24.9662 7.1395 24.9437 7.42461C24.9331 7.56368 24.8738 7.68468 24.7864 7.76952L20.3969 12.0378L21.6952 18.3651C21.7533 18.6439 21.5959 18.9228 21.3449 18.9868C21.2169 19.0195 21.0882 18.9896 20.9858 18.9151L16 15.5954L10.998 18.9256C10.7775 19.0723 10.4921 18.9923 10.3598 18.7462C10.2977 18.6319 10.2782 18.4951 10.3054 18.3651L10.3048 18.3644L11.6037 12.0378L7.21365 7.76952C7.16757 7.72473 7.12988 7.67027 7.10274 7.60923C7.0756 7.5482 7.05954 7.4818 7.05547 7.41385C7.05141 7.34589 7.05943 7.27771 7.07908 7.21321C7.09872 7.14871 7.1296 7.08916 7.16994 7.03797C7.21087 6.98594 7.26075 6.94357 7.31663 6.91335C7.37251 6.88313 7.43326 6.86569 7.49529 6.86204L13.2823 6.28418L15.571 0.316384C15.6722 0.052138 15.9457 -0.0709451 16.1823 0.0417072C16.2991 0.0966426 16.3853 0.198864 16.4303 0.319166ZM7.49404 1.91925L5.80547 6.32103C5.76993 6.4145 5.711 6.49461 5.63571 6.55182C5.56042 6.60903 5.47194 6.64092 5.38082 6.64369L1.12816 7.06927L4.36605 10.2173C4.43092 10.2805 4.47922 10.3621 4.50582 10.4535C4.53243 10.5448 4.53635 10.6424 4.51718 10.736L3.55986 15.4021L7.24925 12.946C7.40599 12.8417 7.59458 12.8493 7.74133 12.948L9.43054 14.0725L9.2076 15.1608L7.49404 14.0203L3.83587 16.4556C3.74595 16.5175 3.64541 16.5613 3.53987 16.5821C3.43122 16.6037 3.31694 16.6016 3.20578 16.5738C2.97785 16.5168 2.793 16.361 2.67872 16.1593C2.56445 15.9556 2.51886 15.7025 2.57069 15.4507L3.52364 10.8077L0.258888 7.63044C0.207057 7.57272 0.16147 7.50666 0.124626 7.43504L0.105267 7.3954C0.0615543 7.30013 0.032204 7.19513 0.0197145 7.08387L0.0153432 7.02685C0.00160476 6.77929 0.0765416 6.54703 0.210804 6.36832C0.344441 6.191 0.536779 6.06861 0.757218 6.0394L5.03924 5.61313L6.71845 1.23568C6.76153 1.12373 6.82211 1.02081 6.89705 0.937363C6.96199 0.866434 7.0388 0.804544 7.12623 0.757954L7.16432 0.737787C7.37727 0.636261 7.60895 0.640434 7.8094 0.730138C8.00923 0.820538 8.17847 0.99508 8.26901 1.2329L9.61413 4.73973L8.61497 4.83986L7.49404 1.91925Z" fill="black"/>
</svg>
