<svg width="31" height="32" viewBox="0 0 31 32" fill="none" xmlns="http://www.w3.org/2000/svg">
<path fill-rule="evenodd" clip-rule="evenodd" d="M22.4931 3.86198L11.4288 10.4896H14.5753L22.7441 5.59635L23.9435 4.8776L27.4017 10.4896H29.4149C29.8534 10.4896 30.2497 10.6667 30.5377 10.9479C30.8256 11.2318 31.0053 11.6224 31.0053 12.0521V30.4349C31.0053 30.8646 30.8256 31.2552 30.5403 31.5365V31.5391C30.2523 31.8229 29.8561 31.9974 29.4175 31.9974H1.59042C1.15187 31.9974 0.755582 31.8229 0.467615 31.5391V31.5365C0.179649 31.2552 0 30.8646 0 30.4375V12.0521C0 11.6224 0.179649 11.2292 0.464974 10.9479C0.75294 10.6641 1.14922 10.4896 1.58778 10.4896H2.24825L19.4259 0.200521C19.6451 0.0703125 19.8935 0 20.1497 0C20.2607 0 20.3717 0.0130208 20.48 0.0390625C20.8393 0.125 21.151 0.348958 21.3412 0.661458L23.0928 3.5026L22.4931 3.86198ZM1.55608 11.8802C1.49531 11.9453 1.44512 12.0182 1.40813 12.099V14.362H29.5919V12.0521C29.5919 12.0026 29.5734 11.9583 29.5417 11.9297H29.539C29.5073 11.8984 29.4624 11.8776 29.4122 11.8776H1.58778C1.57721 11.8776 1.56664 11.8776 1.55608 11.8802ZM4.22175 22.0599H9.25456V23.9167H4.22175V22.0599ZM4.22175 26.4557H18.2898V28.1302H4.22175V26.4557ZM22.7758 22.0599H27.8086V23.9167H22.7758V22.0599ZM16.5911 22.0599H21.6239V23.9167H16.5911V22.0599ZM10.4064 22.0599H15.4392V23.9167H10.4064V22.0599ZM29.5919 19.5677H1.40813V30.4349C1.40813 30.4844 1.42662 30.5286 1.46097 30.5599H1.46361C1.49795 30.5937 1.54287 30.612 1.58778 30.612H29.4149C29.4624 30.612 29.5073 30.5911 29.5417 30.5599C29.576 30.526 29.5945 30.4818 29.5945 30.4349V19.5677H29.5919Z" fill="black"/>
</svg>
