<svg width="21" height="19" viewBox="0 0 21 19" fill="none" xmlns="http://www.w3.org/2000/svg">
<path fill-rule="evenodd" clip-rule="evenodd" d="M0.852783 15.0583C7.23071 15.0457 13.6035 15.0385 19.9814 15.0583C20.3608 15.0601 20.6719 15.3862 20.6719 15.7861C20.6719 16.8724 20.2395 18.9981 17.9084 18.9981C12.9131 18.9981 7.91943 18.9981 2.92407 18.9981C0.593018 18.9981 0.160645 16.8724 0.160645 15.7861C0.160645 15.3862 0.47168 15.0601 0.852783 15.0583ZM15.1331 2.44991C15.7192 2.44991 16.196 2.95071 16.196 3.57041C16.196 4.18831 15.7209 4.69092 15.1331 4.69092C14.5469 4.69092 14.0701 4.19012 14.0701 3.57041C14.0718 2.95251 14.5469 2.44991 15.1331 2.44991ZM5.86694 2.52917C6.45313 2.52917 6.92993 3.02997 6.92993 3.64968C6.92993 4.26758 6.45483 4.77019 5.86694 4.77019C5.28076 4.77019 4.80396 4.26938 4.80396 3.64968C4.80396 3.02997 5.27905 2.52917 5.86694 2.52917ZM10.4624 1.4609C11.0486 1.4609 11.5254 1.96171 11.5254 2.58141C11.5254 3.19931 11.0503 3.70192 10.4624 3.70192C9.87622 3.70192 9.39941 3.20111 9.39941 2.58141C9.40112 1.96171 9.87622 1.4609 10.4624 1.4609ZM19.0774 8.03984H1.97729C0.890381 8.03984 0 7.10308 0 5.95735C0 2.99034 5.60718 0.0503602 10.3154 -8.07301e-05C19.5798 -0.0973596 23.7378 8.03984 19.0774 8.03984ZM20.6257 11.2068C20.6548 11.259 20.6702 11.3149 20.6702 11.3743C20.6702 11.4122 20.6685 11.4536 20.6667 11.495C20.6702 11.5365 20.6702 11.5779 20.6702 11.6157C20.6702 11.6752 20.6548 11.731 20.6257 11.7833C20.4685 12.5057 19.8396 13.4514 17.9084 13.4514C12.9131 13.4514 7.91943 13.4514 2.92407 13.4514C0.991211 13.4514 0.364014 12.5075 0.206787 11.7833C0.177734 11.731 0.162354 11.6752 0.162354 11.6157C0.162354 11.5779 0.164062 11.5365 0.165771 11.495C0.162354 11.4536 0.162354 11.4122 0.162354 11.3743C0.162354 11.3149 0.177734 11.259 0.206787 11.2068C0.364014 10.4844 0.99292 9.53865 2.92407 9.53865H10.6829L13.5437 12.6534L16.3857 9.53865H17.9084C19.8413 9.54045 20.4685 10.4844 20.6257 11.2068Z" fill="black"/>
</svg>
