<svg width="29" height="29" viewBox="0 0 29 29" fill="none" xmlns="http://www.w3.org/2000/svg">
<path fill-rule="evenodd" clip-rule="evenodd" d="M14.5 0C22.5076 0 29 6.49243 29 14.5C29 22.5076 22.5076 29 14.5 29C6.49243 29 0 22.5076 0 14.5C0 6.49243 6.49243 0 14.5 0ZM14.4363 14.5378C14.8516 14.5378 15.1868 14.8729 15.1868 15.2882C15.1868 15.7036 14.8516 16.0387 14.4363 16.0387C14.0209 16.0387 13.6858 15.7036 13.6858 15.2882C13.6858 14.8752 14.0233 14.5378 14.4363 14.5378ZM14.4434 12.5742C15.9396 12.5742 17.1503 13.7873 17.1503 15.2812C17.1503 16.7774 15.9373 17.9881 14.4434 17.9881C12.9495 17.9881 11.7364 16.7751 11.7364 15.2812C11.7364 13.7849 12.9495 12.5742 14.4434 12.5742ZM3.48812 10.5186C4.53833 7.61344 6.67887 5.16138 9.36458 3.9082C13.0533 2.18774 17.5326 2.07918 21.3276 4.88761C23.5649 6.54199 24.3814 7.89901 25.4977 10.3039C26.3426 12.435 25.6488 13.1288 22.9324 11.9323C17.3179 9.15454 11.642 9.27962 5.91187 11.9323C3.79728 13.3129 2.61019 12.1612 3.48812 10.5186ZM17.9126 25.7361C21.835 24.5018 24.1242 22.0049 25.5284 18.8212C26.4417 16.3597 23.579 15.5243 22.5737 17.1456C21.9718 18.3398 21.2544 19.364 20.3198 20.1593C18.8566 21.4031 16.7373 21.6296 16.4069 23.9731C16.2346 25.1909 16.5131 26.286 17.9126 25.7361ZM11.1535 25.7361C7.23112 24.5018 4.94189 22.0049 3.53768 18.8212C2.62435 16.3597 5.48706 15.5243 6.49243 17.1456C7.09424 18.3398 7.81169 19.364 8.74626 20.1593C10.2095 21.4031 12.3288 21.6296 12.6592 23.9731C12.8315 25.1909 12.553 26.286 11.1535 25.7361Z" fill="black"/>
</svg>
