<svg width="25" height="20" viewBox="0 0 25 20" fill="none" xmlns="http://www.w3.org/2000/svg">
<path fill-rule="evenodd" clip-rule="evenodd" d="M2.44954 5.88089H4.36808L9.06576 0.394525C9.48283 -0.093435 10.2071 -0.135866 10.673 0.299055C11.141 0.733976 11.1816 1.48925 10.7646 1.97721L7.42391 5.88089H17.6615L14.3209 1.97721C13.9038 1.48925 13.9445 0.733976 14.4124 0.299055C14.8804 -0.135866 15.6026 -0.093435 16.0217 0.394525L20.7174 5.88089H22.5525H22.5769H24.3001C24.6867 5.88089 25.002 6.20974 25.002 6.61283V8.67712C25.002 9.08022 24.6867 9.40906 24.3001 9.40906H22.8088L22.0418 19.4929C22.0215 19.7708 21.8221 19.9999 21.5556 19.9999H3.44645C3.17993 19.9999 2.98055 19.7708 2.96021 19.4929L2.1932 9.40906H0.701904C0.315348 9.40906 0 9.08022 0 8.67712V6.61283C0 6.20974 0.315348 5.88089 0.701904 5.88089H2.42513H2.44954ZM15.802 9.80579H18.0216V16.4951H15.802V9.80579ZM11.4848 9.80579H13.7024V16.4951H11.4848V9.80579ZM7.16756 9.80579H9.38721V16.4951H7.16756V9.80579Z" fill="black"/>
</svg>
