<svg width="24" height="28" viewBox="0 0 24 28" fill="none" xmlns="http://www.w3.org/2000/svg">
<path d="M1.05009 9.75718H16.1391C16.2767 9.75776 16.4129 9.78564 16.5398 9.83921C16.6666 9.89278 16.7817 9.97099 16.8785 10.0694C16.977 10.1661 17.0552 10.2816 17.1086 10.4092C17.162 10.5368 17.1894 10.6738 17.1892 10.8122V11.9333C20.2328 11.8216 22.2718 13.2298 23.2856 15.1393C23.7418 16.0075 23.9866 16.9719 24 17.9535C24.0148 18.9362 23.7996 19.9088 23.3718 20.7927C22.3988 22.7979 20.3372 24.3451 17.1892 24.3337V25.0173C17.1885 25.4076 17.1109 25.794 16.9611 26.1541C16.8112 26.5143 16.592 26.8412 16.316 27.1159C16.042 27.3937 15.7159 27.6143 15.3567 27.7649C14.9974 27.9155 14.6119 27.993 14.2226 27.9932H2.96655C2.1815 27.9914 1.42901 27.6777 0.873259 27.1207C0.317506 26.5636 0.00359088 25.8083 0 25.0196L0 10.8122C0.000599175 10.5326 0.111425 10.2646 0.308225 10.0668C0.505024 9.86913 0.771769 9.75778 1.05009 9.75718ZM8.86335 18.6439C8.96018 18.7124 9.04522 18.7963 9.1151 18.8923H10.866C10.9488 18.8872 11.0317 18.8992 11.1097 18.9275C11.1878 18.9558 11.2592 18.9999 11.3196 19.057C11.38 19.1141 11.4281 19.183 11.461 19.2595C11.494 19.336 11.5109 19.4185 11.5109 19.5018C11.5109 19.5851 11.494 19.6676 11.461 19.7441C11.4281 19.8206 11.38 19.8895 11.3196 19.9466C11.2592 20.0037 11.1878 20.0478 11.1097 20.0761C11.0317 20.1044 10.9488 20.1164 10.866 20.1113H9.1151C9.02751 20.2347 8.91434 20.3375 8.7834 20.4127C8.65245 20.4878 8.50684 20.5336 8.3566 20.5468C8.20636 20.56 8.05506 20.5403 7.91313 20.489C7.77119 20.4378 7.642 20.3563 7.53445 20.2501C7.4269 20.1438 7.34355 20.0155 7.29014 19.8738C7.23674 19.7321 7.21454 19.5804 7.22509 19.4293C7.23564 19.2781 7.27868 19.131 7.35125 18.9982C7.42382 18.8654 7.52418 18.75 7.64544 18.6598L7.66585 16.6091C7.66077 16.5256 7.67276 16.4419 7.70107 16.3633C7.72938 16.2846 7.77341 16.2126 7.83045 16.1517C7.8875 16.0908 7.95635 16.0422 8.03277 16.0091C8.10919 15.9759 8.19156 15.9588 8.27481 15.9588C8.35806 15.9588 8.44043 15.9759 8.51684 16.0091C8.59326 16.0422 8.66211 16.0908 8.71916 16.1517C8.7762 16.2126 8.82024 16.2846 8.84854 16.3633C8.87685 16.4419 8.88884 16.5256 8.88376 16.6091L8.86335 18.6348V18.6439ZM8.59346 13.125C9.34553 13.1244 10.0903 13.2731 10.7851 13.5624C11.4798 13.8518 12.1108 14.2762 12.6418 14.8112C13.1739 15.3451 13.5959 15.9792 13.8839 16.6771C14.1718 17.375 14.32 18.1231 14.32 18.8786C14.32 19.6341 14.1718 20.3822 13.8839 21.0801C13.5959 21.778 13.1739 22.4121 12.6418 22.946C11.5683 24.0242 10.1125 24.63 8.59459 24.63C7.07664 24.63 5.62084 24.0242 4.54734 22.946C4.01459 22.4128 3.59166 21.7794 3.30273 21.0818C3.0138 20.3843 2.86454 19.6365 2.86349 18.881C2.86243 18.1255 3.00961 17.3772 3.29659 16.6788C3.58357 15.9805 4.00474 15.3459 4.536 14.8112C5.06821 14.2752 5.7007 13.8502 6.39706 13.5609C7.09342 13.2715 7.83988 13.1233 8.59346 13.125ZM11.8435 15.6133C10.9809 14.7493 9.8126 14.2642 8.59459 14.2642C7.37659 14.2642 6.20827 14.7493 5.34568 15.6133C4.4859 16.4795 4.00307 17.653 4.00307 18.8763C4.00307 20.0997 4.4859 21.2731 5.34568 22.1393C6.21308 22.9741 7.37133 23.4344 8.57238 23.4217C9.77344 23.4091 10.9218 22.9244 11.7716 22.0716C12.6213 21.2187 13.1049 20.0654 13.1188 18.8588C13.1327 17.6521 12.6757 16.4879 11.8458 15.6156L11.8435 15.6133ZM12.9117 2.27866C12.8394 2.19114 12.7859 2.08946 12.7548 1.98008C12.7237 1.87069 12.7155 1.756 12.7309 1.64328C12.7462 1.53056 12.7848 1.42228 12.844 1.32533C12.9033 1.22837 12.9819 1.14486 13.075 1.08009C13.2672 0.941549 13.5042 0.880585 13.739 0.909283C13.9738 0.937981 14.1893 1.05425 14.3428 1.23504C15.114 2.18068 14.8101 3.13999 14.4608 4.24286C14.1637 5.17938 13.8189 6.26629 14.5107 7.29852C14.5738 7.39333 14.6168 7.5002 14.6369 7.61246C14.6571 7.72471 14.654 7.83993 14.6278 7.95092C14.6016 8.06191 14.5529 8.16628 14.4848 8.25751C14.4166 8.34874 14.3305 8.42487 14.2317 8.48114C14.0281 8.60314 13.7863 8.64368 13.5543 8.59471C13.3224 8.54573 13.1173 8.41082 12.9798 8.21681C11.8458 6.52606 12.3175 5.02671 12.7235 3.75522C12.9321 3.09897 13.1136 2.52476 12.9117 2.27866ZM7.95842 1.3672C7.88757 1.27989 7.83538 1.17886 7.8051 1.0704C7.77482 0.961933 7.7671 0.848366 7.78242 0.736773C7.79774 0.62518 7.83577 0.517954 7.89415 0.421776C7.95252 0.325598 8.02999 0.242531 8.12172 0.177751C8.3139 0.0392049 8.55088 -0.0217584 8.78569 0.00693923C9.02049 0.0356369 9.23601 0.151902 9.38953 0.332699C10.1607 1.27606 9.85674 2.23765 9.50747 3.34051C9.21036 4.27704 8.86562 5.36395 9.55736 6.39618C9.62048 6.49099 9.66346 6.59786 9.68361 6.71011C9.70375 6.82237 9.70064 6.93759 9.67446 7.04858C9.64828 7.15957 9.59959 7.26394 9.53144 7.35517C9.4633 7.4464 9.37715 7.52253 9.2784 7.57879C9.07483 7.70079 8.833 7.74134 8.60103 7.69236C8.36906 7.64339 8.16394 7.50848 8.02646 7.31447C6.89246 5.62371 7.3642 4.12437 7.77018 2.85288C7.97883 2.19435 8.16027 1.62241 7.95842 1.37632V1.3672ZM3.0051 2.27866C2.9346 2.19092 2.88285 2.08952 2.8531 1.98078C2.82336 1.87205 2.81624 1.75832 2.8322 1.6467C2.84817 1.53508 2.88686 1.42796 2.94588 1.33204C3.00489 1.23612 3.08296 1.15346 3.1752 1.08921C3.36739 0.950663 3.60436 0.8897 3.83917 0.918398C4.07398 0.947095 4.2895 1.06336 4.44302 1.24416C5.21414 2.18752 4.91023 3.14911 4.56095 4.25197C4.26384 5.18849 3.91911 6.27769 4.61085 7.30763C4.67397 7.40244 4.71694 7.50932 4.73709 7.62157C4.75724 7.73382 4.75413 7.84905 4.72794 7.96004C4.70176 8.07102 4.65308 8.1754 4.58493 8.26663C4.51678 8.35786 4.43064 8.43398 4.33188 8.49025C4.12831 8.61225 3.88649 8.6528 3.65452 8.60382C3.42255 8.55484 3.21742 8.41994 3.07995 8.22593C1.94595 6.53517 2.41769 5.03582 2.82366 3.76434C3.03232 3.10809 3.21376 2.53615 3.01191 2.28778L3.0051 2.27866ZM17.1892 14.3281V21.9479C19.2304 21.9479 20.539 21.0091 21.1332 19.7832C21.4013 19.2219 21.5356 18.6056 21.5256 17.9831C21.5168 17.3687 21.3612 16.7654 21.072 16.224C20.4619 15.0847 19.1669 14.2324 17.1778 14.3281H17.1892ZM15.715 11.2383H1.4742V25.0196C1.47658 25.4165 1.63457 25.7964 1.91393 26.0771C2.19328 26.3578 2.57149 26.5165 2.96655 26.5189H14.2204C14.4163 26.5189 14.6103 26.48 14.7913 26.4045C14.9722 26.3291 15.1366 26.2185 15.275 26.0791C15.4139 25.9402 15.5241 25.7751 15.5992 25.5933C15.6744 25.4114 15.7129 25.2164 15.7127 25.0196V11.2383H15.715Z" fill="black"/>
</svg>
