<svg width="25" height="22" viewBox="0 0 25 22" fill="none" xmlns="http://www.w3.org/2000/svg">
<path d="M23.4924 13.0463C23.0062 15.5879 21.6288 17.8213 19.694 19.4204C17.747 21.0294 15.2405 21.998 12.5061 21.998C9.93652 21.998 7.56633 21.1435 5.67627 19.7065C3.74349 18.2396 2.31527 16.1643 1.68254 13.7708L3.07821 13.4145C3.62752 15.4979 4.87264 17.305 6.55518 18.5838C8.19906 19.8326 10.262 20.5751 12.5041 20.5751C14.8905 20.5751 17.0756 19.7326 18.7663 18.3357C20.3837 16.9988 21.5535 15.1516 22.0174 13.0443H20.5261L22.762 10.3646L24.998 13.0443H23.4924V13.0463ZM12.4695 13.8228V11.3112C11.5702 11.0871 10.9131 10.7488 10.496 10.2966C10.0769 9.84226 9.86532 9.29191 9.86532 8.6435C9.86532 7.98708 10.1034 7.43473 10.5774 6.99045C11.0514 6.54416 11.6821 6.288 12.4695 6.21996V5.62958H13.4745V6.21996C14.211 6.29601 14.7949 6.51415 15.2323 6.87237C15.6657 7.2306 15.9444 7.71091 16.0645 8.31129L14.3087 8.50741C14.2008 8.03511 13.9221 7.71491 13.4745 7.5468V9.89029C14.5854 10.1485 15.3422 10.4867 15.743 10.8989C16.1458 11.3132 16.3472 11.8435 16.3472 12.492C16.3472 13.2164 16.095 13.8248 15.5884 14.3211C15.0818 14.8174 14.3778 15.1256 13.4745 15.2477V16.3684H12.4695V15.2617C11.676 15.1777 11.0331 14.9235 10.5347 14.4952C10.0362 14.067 9.72087 13.4606 9.58252 12.6781L11.379 12.494C11.4522 12.8142 11.5906 13.0883 11.794 13.3205C11.9975 13.5526 12.2213 13.7187 12.4695 13.8228ZM12.4695 7.52479C12.1989 7.60884 11.9853 7.74693 11.8286 7.93905C11.6699 8.13117 11.5926 8.34331 11.5926 8.57546C11.5926 8.78759 11.6638 8.98372 11.8083 9.16583C11.9527 9.34595 12.1745 9.49404 12.4715 9.60411V7.52479H12.4695ZM13.4745 13.9229C13.8204 13.8568 14.1052 13.7127 14.3209 13.4926C14.5406 13.2704 14.6484 13.0103 14.6484 12.7081C14.6484 12.4419 14.5569 12.2098 14.3717 12.0176C14.1907 11.8235 13.8916 11.6754 13.4725 11.5714V13.9229H13.4745ZM1.51774 8.9537C1.99992 6.43409 3.35693 4.21868 5.26327 2.62167C7.21639 0.986628 9.74528 0 12.5041 0C14.9312 0 17.1773 0.760484 19.0104 2.05331C20.8923 3.38015 22.3368 5.26735 23.0957 7.46875L22.4121 7.6969L21.7285 7.92504C21.7102 7.86901 21.6899 7.81297 21.6695 7.75894C20.9961 5.91576 19.7612 4.33476 18.1702 3.21204C16.5751 2.08733 14.62 1.42491 12.5061 1.42491C10.0972 1.42491 7.89388 2.28145 6.1971 3.70236C4.60205 5.03721 3.45256 6.86837 2.99072 8.9537H4.47388L2.23592 11.6334L0 8.9537H1.51774Z" fill="black"/>
</svg>
