<svg width="20" height="20" viewBox="0 0 20 20" fill="none" xmlns="http://www.w3.org/2000/svg">
<path fill-rule="evenodd" clip-rule="evenodd" d="M10 2.32617C14.2383 2.32617 17.6738 5.76211 17.6738 10C17.6738 14.2379 14.2383 17.6738 10 17.6738C5.76211 17.6738 2.32617 14.2379 2.32617 10C2.32617 5.76211 5.76211 2.32617 10 2.32617ZM10 0C12.7609 0 15.2613 1.11953 17.0711 2.92891C18.8805 4.73867 20 7.23867 20 10C20 12.7613 18.8805 15.2617 17.0711 17.0711C15.2617 18.8805 12.7613 20 10 20C7.23867 20 4.73867 18.8805 2.92891 17.0711C1.11953 15.2613 0 12.7609 0 10C0 7.23867 1.11953 4.73867 2.92891 2.92891C4.73867 1.11953 7.23867 0 10 0ZM16.3781 3.62188C14.7457 1.98984 12.4906 0.980078 10 0.980078C7.50898 0.980078 5.25391 1.98984 3.62188 3.62188C1.98984 5.25391 0.980078 7.50898 0.980078 10C0.980078 12.4906 1.98984 14.7457 3.62188 16.3781C5.25391 18.0102 7.50898 19.0199 10 19.0199C12.491 19.0199 14.7461 18.0102 16.3781 16.3781C18.0102 14.7461 19.0199 12.491 19.0199 10C19.0199 7.50898 18.0102 5.25391 16.3781 3.62188ZM11.1777 8.5457C11.1547 8.28398 11.0496 8.08242 10.8629 7.93594C10.7336 7.83477 10.5648 7.76836 10.3582 7.7375V9.25508L10.7348 9.34023C11.093 9.41875 11.4109 9.52187 11.6875 9.65195C11.9625 9.78203 12.1941 9.93828 12.3824 10.1184C12.5707 10.2965 12.7137 10.5047 12.8102 10.7383C12.907 10.973 12.957 11.2363 12.9602 11.5258C12.957 11.9855 12.8406 12.3789 12.6121 12.7086C12.3824 13.0371 12.0523 13.2902 11.6227 13.4652C11.2641 13.6117 10.8422 13.6965 10.3582 13.7199V14.543H9.775V13.7195C9.28945 13.6945 8.85781 13.6062 8.48086 13.4535C8.02773 13.2719 7.67617 12.9953 7.42617 12.6238C7.17461 12.2523 7.04648 11.7824 7.03945 11.2145H8.72227C8.73555 11.4477 8.79883 11.6441 8.90859 11.7992C9.02031 11.9559 9.17383 12.0742 9.36836 12.1539C9.49219 12.2055 9.62773 12.2402 9.775 12.259V10.6574L9.25352 10.5363C8.62422 10.3918 8.1293 10.1582 7.76602 9.83516C7.4043 9.51211 7.22461 9.07539 7.22617 8.52383C7.22461 8.07422 7.34609 7.6793 7.58945 7.34102C7.83281 7.00312 8.16914 6.73984 8.60078 6.55C8.95273 6.39609 9.34375 6.30469 9.775 6.27617V5.45703H10.3582V6.275C10.8031 6.30195 11.1977 6.39453 11.541 6.55156C11.9574 6.74297 12.2789 7.00977 12.509 7.35273C12.7391 7.69609 12.8555 8.09258 12.8605 8.5457H11.1777ZM9.775 7.7375C9.67344 7.75234 9.58242 7.775 9.50195 7.80586C9.35039 7.86602 9.23711 7.94766 9.16211 8.04922C9.08555 8.15234 9.04727 8.2707 9.04375 8.40234C9.04023 8.5125 9.06211 8.60742 9.11055 8.69063C9.15859 8.77383 9.23047 8.8457 9.32344 8.90859C9.41719 8.97227 9.53047 9.02695 9.66172 9.07383C9.69844 9.08672 9.73633 9.09922 9.775 9.11094V7.7375ZM10.3582 12.2547C10.4664 12.2387 10.5652 12.2137 10.6547 12.1789C10.8211 12.1156 10.9496 12.0273 11.0395 11.9141C11.1297 11.7992 11.1762 11.6691 11.1777 11.5227C11.1762 11.3859 11.1328 11.268 11.0496 11.1695C10.9664 11.0711 10.8395 10.9863 10.668 10.9145C10.5777 10.8762 10.4742 10.8395 10.3582 10.8043V12.2547Z" fill="black"/>
</svg>
