<svg width="30" height="22" viewBox="0 0 30 22" fill="none" xmlns="http://www.w3.org/2000/svg">
<path d="M11.4672 13.2263C11.7097 13.4488 11.842 13.7467 11.8625 14.0534C11.883 14.364 11.7866 14.6835 11.5718 14.9409C11.7789 14.7759 12.0302 14.6907 12.2849 14.6835C12.59 14.6746 12.9006 14.7781 13.1436 14.9896C13.1469 14.9924 13.158 15.0029 13.1757 15.0195L12.9714 15.2388L13.1768 15.019C13.1857 15.0273 13.1935 15.0361 13.2012 15.045C13.4326 15.2737 13.5511 15.5699 13.5611 15.8721C13.5705 16.1462 13.4902 16.4241 13.3236 16.6594C13.4686 16.5841 13.6281 16.5421 13.7892 16.5343C14.0721 16.5199 14.3633 16.6102 14.5942 16.8028C14.6058 16.8122 14.6163 16.8217 14.6257 16.83C14.8616 17.0409 14.9862 17.3244 15.0022 17.6156C15.0183 17.9079 14.9247 18.2085 14.7226 18.4505L14.1795 19.1021C14.2847 19.1658 14.391 19.2311 14.4978 19.297C15.6046 19.9791 16.8437 20.7426 17.7705 19.6353L15.5382 17.9533L16.0807 17.2341L18.4808 19.0429L18.6962 18.9925L18.7388 18.9853C19.0427 18.9443 19.2753 18.8292 19.443 18.6465C19.5798 18.497 19.6828 18.296 19.7542 18.0474L16.7196 16.0017L17.224 15.2543L20.3953 17.3925C20.769 17.2961 21.0619 17.1577 21.274 16.9772C21.4323 16.8427 21.548 16.6799 21.6216 16.4883L17.8087 13.7605L18.3302 13.0275L22.3071 15.8727C22.5562 15.8683 22.7699 15.7941 22.941 15.6745C23.0938 15.5676 23.2178 15.4226 23.3075 15.2559C23.3989 15.0865 23.4537 14.8966 23.467 14.7034C23.4852 14.4365 23.4249 14.1669 23.2721 13.941C23.2173 13.9211 23.1658 13.8901 23.1215 13.8491C21.8342 12.7828 20.5741 11.8244 19.2592 10.9945C17.9648 10.1784 16.61 9.48082 15.1118 8.91942C14.8782 8.92717 14.6761 8.92551 14.5012 8.92385C13.9237 8.91831 13.7892 8.9172 13.3595 9.7593C13.0395 10.3855 12.6204 10.8544 12.085 11.1119C11.5774 11.356 10.9866 11.402 10.3029 11.2032C9.29078 10.9092 9.05382 10.6673 9.23209 10.0544C9.28082 9.88609 9.37272 9.72166 9.49342 9.50573C9.52497 9.44926 9.55875 9.3878 9.64235 9.23112C10.1667 8.24397 10.6245 7.44892 11.0724 6.81223C10.6051 6.75853 10.2292 6.68268 9.86049 6.57029C9.45245 6.44627 9.07486 6.2846 8.60813 6.06259L5.39641 11.8443L6.66482 13.1565L7.1476 12.5995C7.36796 12.346 7.66914 12.1987 7.98029 12.1693C8.29089 12.14 8.6109 12.2269 8.86945 12.4412C8.87443 12.4451 8.87166 12.4434 8.89049 12.46C9.13686 12.6737 9.28026 12.9688 9.31015 13.2733C9.33119 13.4854 9.29742 13.7024 9.20551 13.8995L9.69605 13.3248L9.69549 13.3242C9.69826 13.3209 9.70158 13.3176 9.70435 13.3143V13.3137C9.711 13.306 9.71819 13.2988 9.72594 13.2916C9.9463 13.0519 10.2431 12.9212 10.547 12.9018C10.8587 12.8819 11.1793 12.9788 11.4334 13.1958L11.434 13.1952C11.4378 13.1986 11.4411 13.2019 11.4445 13.2047C11.4528 13.2113 11.46 13.2185 11.4672 13.2263ZM13.5971 19.8009L13.0357 20.4741C13.0268 20.4846 13.0185 20.4946 13.0102 20.5034C12.8054 20.7326 12.5241 20.8539 12.2362 20.8683C11.9538 20.8821 11.6626 20.7924 11.4312 20.5992C11.4201 20.5898 11.4096 20.5809 11.4002 20.5726C11.1643 20.3611 11.0392 20.0782 11.0232 19.7865C11.011 19.565 11.0619 19.3386 11.176 19.1365L11.1162 19.2046C11.109 19.2134 11.1145 19.2057 11.0874 19.235C10.862 19.4753 10.5586 19.5988 10.2503 19.6071C9.9452 19.6159 9.63406 19.5124 9.391 19.3009C9.38491 19.2954 9.37882 19.2898 9.37273 19.2837C9.3672 19.2788 9.36277 19.2743 9.35834 19.2705L9.35779 19.271C9.34948 19.2633 9.34118 19.2544 9.33398 19.2455C9.10255 19.0169 8.98352 18.7207 8.97355 18.4184C8.96691 18.2097 9.01175 17.9982 9.10754 17.8055C8.90158 17.9821 8.64801 18.0796 8.3889 18.0962C8.07775 18.1161 7.75719 18.0187 7.50251 17.8016L7.50195 17.8022C7.49863 17.7994 7.49476 17.7961 7.49143 17.7928C7.48368 17.7861 7.47593 17.7789 7.46874 17.7717C7.22679 17.5492 7.09392 17.2507 7.07398 16.9446C7.05295 16.6296 7.15149 16.3057 7.37295 16.0466L7.54403 15.8456C7.35247 15.9945 7.12547 16.082 6.8935 16.1041C6.5829 16.1335 6.26289 16.046 6.00434 15.8323H6.00378C5.99714 15.8268 5.9905 15.8207 5.98385 15.8146L5.98275 15.8135C5.73693 15.5998 5.59353 15.3047 5.56363 15.0002C5.53318 14.6929 5.61789 14.3756 5.82772 14.1215C5.83326 14.1143 5.83935 14.1077 5.84544 14.1016L5.84599 14.101L6.07299 13.8392L4.71212 12.4307L4.15847 13.3819L4.15681 13.3852L4.14906 13.3979L4.14574 13.4018C3.96248 13.703 3.67348 13.9006 3.35457 13.9776C3.03844 14.054 2.69185 14.013 2.39288 13.8386L2.38956 13.8353L2.37627 13.8275L2.3724 13.8253L0.621209 12.7634C0.315595 12.578 0.116281 12.2873 0.037662 11.9662C-0.0409563 11.6462 0.0011212 11.2952 0.178842 10.9901L5.72861 1.45848L5.73027 1.4546L5.73802 1.44187L5.74134 1.43855C5.92405 1.13681 6.2136 0.939708 6.53251 0.862754C6.84864 0.78635 7.19467 0.82732 7.4942 1.00172L7.49752 1.00338L7.5108 1.01113L7.51413 1.01445L9.26587 2.0769C9.57093 2.26182 9.7708 2.55249 9.84942 2.87361C9.92748 3.19417 9.8854 3.54463 9.70768 3.85024L8.91596 5.21055C9.39155 5.43866 9.75751 5.59977 10.1213 5.7105C10.5586 5.84393 11.0287 5.91812 11.7313 5.96795L11.7296 5.98566C13.4077 4.16416 15.325 4.30644 20.3793 4.68182L20.6212 4.70009L20.2923 4.13481C20.1146 3.82975 20.0725 3.47874 20.1506 3.15873C20.2292 2.83762 20.4291 2.54695 20.7342 2.36148L22.4859 1.29958L22.4892 1.2957L22.5025 1.28795L22.5058 1.28629C22.8053 1.11189 23.1514 1.07092 23.4675 1.14733C23.7864 1.22428 24.076 1.42194 24.2587 1.72312L24.262 1.727L24.2698 1.73973L24.2714 1.74305L29.8212 11.2747C29.9989 11.5803 30.041 11.9307 29.9624 12.2507C29.8837 12.5724 29.6844 12.8625 29.3788 13.048L27.6276 14.1105L27.6237 14.1121L27.6105 14.1199L27.6071 14.1232C27.3082 14.2976 26.9616 14.3386 26.6455 14.2622C26.3265 14.1852 26.0375 13.9881 25.8543 13.6864L25.851 13.683L25.8432 13.6703L25.8416 13.6664L25.2713 12.687L24.1003 13.5729C24.3107 13.9427 24.3938 14.3585 24.3655 14.7638C24.3439 15.0843 24.2526 15.4004 24.1003 15.6823C23.9464 15.9674 23.7288 16.2198 23.4559 16.4109C23.1791 16.6041 22.8502 16.732 22.4781 16.7652C22.353 17.1157 22.1454 17.4141 21.8558 17.661C21.5391 17.9306 21.13 18.131 20.6278 18.2617C20.5182 18.6581 20.3455 18.9903 20.1052 19.2527C19.7985 19.5877 19.396 19.7981 18.8894 19.8728L18.6784 19.9221C17.2794 22.0664 15.5559 21.0045 14.0256 20.0616C13.88 19.9719 13.736 19.8833 13.5971 19.8009ZM3.38169 12.9273L8.92869 3.39901C8.98627 3.2999 9.00011 3.18751 8.9752 3.08509C8.95139 2.9882 8.8916 2.90017 8.8008 2.84536L7.05293 1.78512L7.05238 1.78623L7.03909 1.77848H7.03964C6.94663 1.72588 6.84033 1.71315 6.74344 1.73695C6.64932 1.75965 6.56461 1.81557 6.51201 1.89973L6.51312 1.90028L6.50537 1.91301L0.957808 11.4407C0.900229 11.5398 0.886387 11.6528 0.911302 11.7547C0.935109 11.8521 0.994903 11.9396 1.08625 11.9949L2.838 13.0574H2.83744L2.84353 13.0607L2.84409 13.0596C2.9371 13.1144 3.04506 13.1271 3.14306 13.1033C3.23718 13.0806 3.32189 13.0247 3.37448 12.9406L3.37393 12.94L3.38113 12.9273L3.38169 12.9273ZM21.7794 4.90051C21.8138 4.93594 21.8414 4.97691 21.8625 5.02176L22.3043 5.80129L26.6183 13.2119H26.6189L26.6261 13.2246L26.6255 13.2251C26.6781 13.3093 26.7628 13.3652 26.8569 13.3879C26.9549 13.4117 27.0629 13.399 27.1559 13.3447L27.1565 13.3458L27.1626 13.342H27.162L28.9137 12.2795C29.0051 12.2247 29.0649 12.1367 29.0887 12.0398C29.1136 11.9374 29.0998 11.8244 29.0422 11.7259L23.4946 2.19758L23.4869 2.18485L23.488 2.1843C23.4354 2.10014 23.3507 2.04422 23.2566 2.02152C23.1597 1.99827 23.0534 2.01045 22.9604 2.06305H22.9609L22.9476 2.07135L22.9471 2.07024L21.1992 3.12993C21.1084 3.18529 21.0486 3.27277 21.0248 3.37021C20.9999 3.47208 21.0137 3.58503 21.0713 3.68413L21.7794 4.90051Z" fill="black"/>
</svg>
