<svg width="25" height="20" viewBox="0 0 25 20" fill="none" xmlns="http://www.w3.org/2000/svg">
<path fill-rule="evenodd" clip-rule="evenodd" d="M0.679525 0H24.3205C24.6948 0 25 0.294377 25 0.65548V15.7629C25 16.124 24.6948 16.4184 24.3205 16.4184H0.679525C0.305176 16.4184 0 16.124 0 15.7629V0.65548C0 0.294377 0.305176 0 0.679525 0ZM2.55737 2.29222H4.55526V2.79462H2.55737V2.29222ZM5.50741 7.61456H2.55737V7.11019H5.50741V7.61456ZM9.52148 7.61652H6.10758V7.11019H9.52148V7.61652ZM15.3931 7.61652H10.0993V7.11216H15.3951V7.61652H15.3931ZM7.57853 5.50878H17.985V6.0053H7.57853V5.50878ZM5.13102 5.50486H7.01497V6.00726H5.13102V5.50486ZM2.55737 5.50486H4.55526V6.00726H2.55737V5.50486ZM7.07398 4.398H2.55737V3.89952H7.07601V4.398H7.07398ZM9.52148 4.39996H7.63753V3.89756H9.52148V4.39996ZM15.3931 4.40192H10.0993V3.89756H15.3951V4.40192H15.3931ZM7.57853 2.29222H12.0972V2.7907H7.57853V2.29222ZM5.13102 2.29222H7.01497V2.79462H5.13102V2.29222ZM18.5547 12.1833L16.7033 11.1824V10.6094L18.5547 9.60848V10.2679L17.2648 10.888L18.5547 11.5278V12.1833ZM18.8985 12.6288L19.5679 9.11392H19.9565L19.283 12.6288H18.8985ZM20.2393 12.1872V11.5317L21.5312 10.9037L20.2393 10.2679V9.61633L22.0907 10.6251V11.1903L20.2393 12.1872ZM9.41773 17.3231H15.5823C15.5986 18.3515 16.038 19.2719 17.2282 19.998H7.77181C8.72396 19.3327 9.42179 18.5242 9.41773 17.3231ZM12.5 14.2106C12.9822 14.2106 13.3728 14.5874 13.3728 15.0525C13.3728 15.5176 12.9822 15.8944 12.5 15.8944C12.0178 15.8944 11.6272 15.5176 11.6272 15.0525C11.6272 14.5874 12.0178 14.2106 12.5 14.2106ZM2.04468 1.23442H22.9574C23.289 1.23442 23.5575 1.49544 23.5575 1.81336V13.1018C23.5575 13.4197 23.2869 13.6807 22.9574 13.6807H2.04468C1.71509 13.6807 1.4445 13.4197 1.4445 13.1018V1.81336C1.44246 1.49544 1.71305 1.23442 2.04468 1.23442Z" fill="black"/>
</svg>
