<svg width="12" height="8" viewBox="0 0 12 8" fill="none" xmlns="http://www.w3.org/2000/svg">
<path fill-rule="evenodd" clip-rule="evenodd" d="M11.6409 0.439215C11.7623 0.533968 11.8332 0.67935 11.8332 0.833318V3.49998C11.8332 3.77613 11.6093 3.99998 11.3332 3.99998C11.0571 3.99998 10.8332 3.77613 10.8332 3.49998V2.35619L8.38955 5.67642C8.30804 5.78717 8.18452 5.85946 8.04805 5.87628C7.91157 5.89311 7.77419 5.85299 7.66822 5.76536L4.17662 2.87801L1.07022 7.12835C0.907274 7.3513 0.594451 7.39994 0.371506 7.237C0.148561 7.07405 0.0999184 6.76123 0.26286 6.53829L3.6825 1.85937C3.76381 1.74812 3.88743 1.67535 4.02416 1.65826C4.16089 1.64117 4.29862 1.68127 4.40481 1.76908L7.89777 4.65756L10.1075 1.65512L8.78781 1.98506C8.51991 2.05203 8.24844 1.88915 8.18147 1.62125C8.11449 1.35335 8.27737 1.08189 8.54527 1.01491L11.2119 0.348246C11.3613 0.310904 11.5196 0.344461 11.6409 0.439215Z" fill="#0F0F11"/>
</svg>
