<svg width="24" height="25" viewBox="0 0 24 25" fill="none" xmlns="http://www.w3.org/2000/svg">
<g clip-path="url(#clip0_1_690)">
<path d="M22.4853 8.45744C22.6207 8.33477 22.7972 8.26726 22.98 8.26823C23.1283 8.26999 23.2734 8.3122 23.3994 8.3903C23.4962 8.44841 23.5829 8.52194 23.656 8.60799C23.8639 8.85062 23.985 9.15559 24 9.47469V23.8464C23.9987 24.1515 23.8773 24.4438 23.6621 24.6602C23.446 24.8761 23.1532 24.9975 22.8477 24.998H1.15444C0.849126 24.9966 0.556599 24.8753 0.340049 24.6602C0.232652 24.5537 0.147481 24.4269 0.0894674 24.2872C0.0314538 24.1475 0.00175051 23.9977 0.00207787 23.8464V9.47469C0.0173446 9.1505 0.14142 8.84089 0.3543 8.59579C0.429371 8.51577 0.515806 8.44722 0.610833 8.39233C0.733758 8.31777 0.87425 8.27705 1.01803 8.27433C1.16223 8.272 1.30391 8.31235 1.42522 8.3903V0.557454C1.4252 0.411008 1.48286 0.270436 1.58572 0.166124C1.68859 0.061812 1.8284 0.00213791 1.97493 0L16.0638 0C16.1457 7.18979e-05 16.2266 0.0183671 16.3006 0.0535577C16.3745 0.0887484 16.4397 0.139951 16.4914 0.203451L22.3244 6.22355C22.4261 6.32659 22.4831 6.46543 22.4832 6.61011V6.77083C22.4832 6.79321 22.4832 6.81559 22.4832 6.84001C22.4832 6.86442 22.4832 6.88477 22.4832 6.90715V8.45947L22.4853 8.45744Z" fill="black"/>
<path d="M22.8823 22.3287V9.58658L15.5956 15.9485L22.8823 22.3287Z" fill="black"/>
<path d="M8.30477 16.0095L1.1178 9.59268V22.3043L8.30477 16.0095Z" fill="black"/>
<path d="M11.5073 18.868L9.1415 16.7562L1.11774 23.7834V23.8464C1.11424 23.8549 1.11424 23.8644 1.11774 23.8729C1.12636 23.8756 1.13559 23.8756 1.14421 23.8729H22.8456C22.8542 23.8756 22.8634 23.8756 22.8721 23.8729C22.8756 23.8644 22.8756 23.8549 22.8721 23.8464V23.8037L14.7506 16.683L12.2463 18.8721C12.1447 18.962 12.0136 19.0117 11.8778 19.0117C11.7421 19.0117 11.611 18.962 11.5093 18.8721L11.5073 18.868Z" fill="black"/>
<path d="M20.83 6.27848L15.8805 1.16781V1.11694H2.53271V9.35872L9.4998 15.5843L9.53034 15.6128L11.8819 17.7124L21.3776 9.43197V7.39746L20.8401 6.28052L20.83 6.27848Z" fill="white"/>
<path fill-rule="evenodd" clip-rule="evenodd" d="M11.9511 2.71606C12.9682 2.71606 13.9626 3.01747 14.8083 3.58217C15.654 4.14687 16.3132 4.94949 16.7025 5.88855C17.0917 6.82761 17.1936 7.86093 16.9951 8.85783C16.7967 9.85472 16.3069 10.7704 15.5876 11.4892C14.8684 12.2079 13.952 12.6973 12.9544 12.8956C11.9568 13.0939 10.9227 12.9922 9.983 12.6032C9.04326 12.2142 8.24006 11.5555 7.67496 10.7104C7.10985 9.86526 6.80823 8.87165 6.80823 7.85523C6.80823 6.49223 7.35006 5.18507 8.31454 4.22129C9.27901 3.25751 10.5871 2.71606 11.9511 2.71606Z" fill="black"/>
<path fill-rule="evenodd" clip-rule="evenodd" d="M10.355 7.03938L11.2651 7.89794L13.4191 5.71695C13.5983 5.53588 13.7103 5.39143 13.9301 5.61726L14.6448 6.34764C14.8789 6.57958 14.8667 6.71589 14.6448 6.93155L11.6743 9.8531C11.2081 10.3109 11.2895 10.3393 10.8151 9.86937L9.16191 8.21735C9.13852 8.19683 9.12015 8.17122 9.10821 8.14249C9.09628 8.11376 9.09109 8.08267 9.09306 8.05163C9.09502 8.02059 9.10409 7.9904 9.11955 7.96341C9.13502 7.93641 9.15647 7.91332 9.18227 7.8959L10.0109 7.03734C10.1371 6.9051 10.2369 6.91731 10.3652 7.03734L10.355 7.03938Z" fill="white"/>
</g>
<defs>
<clipPath id="clip0_1_690">
<rect width="24" height="25" fill="white"/>
</clipPath>
</defs>
</svg>
