<svg width="25" height="25" viewBox="0 0 25 25" fill="none" xmlns="http://www.w3.org/2000/svg">
<path fill-rule="evenodd" clip-rule="evenodd" d="M4.06901 0H20.931C22.0092 0.00322007 23.0423 0.432952 23.8047 1.19534C24.567 1.95773 24.9968 2.99083 25 4.06901V20.931C24.9968 22.0092 24.567 23.0423 23.8047 23.8047C23.0423 24.567 22.0092 24.9968 20.931 25H4.06901C2.99083 24.9968 1.95773 24.567 1.19534 23.8047C0.432952 23.0423 0.00322007 22.0092 0 20.931L0 4.06901C0.00322007 2.99083 0.432952 1.95773 1.19534 1.19534C1.95773 0.432952 2.99083 0.00322007 4.06901 0ZM16.1947 6.10352C16.6156 6.10348 17.0304 6.20486 17.4039 6.39907C17.7774 6.59329 18.0986 6.87462 18.3403 7.21927C18.582 7.56391 18.7371 7.96172 18.7925 8.37902C18.848 8.79632 18.802 9.22083 18.6586 9.61661C18.5152 10.0124 18.2786 10.3678 17.9687 10.6528C17.6589 10.9377 17.2849 11.1438 16.8785 11.2537C16.4722 11.3635 16.0453 11.3738 15.6341 11.2837C15.2229 11.1936 14.8394 11.0058 14.5162 10.7361L11.0352 12.1908C11.0471 12.2894 11.0539 12.3885 11.0555 12.4878L14.6729 14.1541C15.1707 13.8064 15.7745 13.6441 16.3796 13.6953C16.9846 13.7465 17.5526 14.008 17.9849 14.4344C18.4172 14.8608 18.6865 15.4251 18.746 16.0294C18.8055 16.6337 18.6515 17.2397 18.3107 17.7423C17.9699 18.2448 17.4638 18.6121 16.8804 18.7804C16.297 18.9487 15.6731 18.9073 15.117 18.6634C14.5609 18.4195 14.1078 17.9886 13.8364 17.4455C13.565 16.9023 13.4924 16.2812 13.6312 15.6901L10.4268 14.209C10.0883 14.6055 9.6391 14.892 9.13679 15.0319C8.63449 15.1717 8.10188 15.1585 7.60711 14.994C7.11234 14.8295 6.67791 14.5211 6.35938 14.1083C6.04085 13.6955 5.85271 13.197 5.81902 12.6767C5.78534 12.1564 5.90765 11.6378 6.1703 11.1874C6.43295 10.737 6.82401 10.3752 7.29344 10.1482C7.76287 9.92128 8.28932 9.83954 8.80547 9.91345C9.32161 9.98737 9.80397 10.2136 10.1908 10.5632L13.6068 9.139C13.585 9.00447 13.5741 8.86839 13.5742 8.7321C13.5731 8.38729 13.6401 8.04566 13.7713 7.7268C13.9026 7.40793 14.0954 7.11809 14.3388 6.8739C14.5823 6.62971 14.8715 6.43596 15.19 6.30376C15.5084 6.17156 15.8499 6.10351 16.1947 6.10352Z" fill="black"/>
</svg>
