<svg width="21" height="26" viewBox="0 0 21 26" fill="none" xmlns="http://www.w3.org/2000/svg">
<path fill-rule="evenodd" clip-rule="evenodd" d="M1.82355 0H12.6462V7.44946C12.6462 7.72926 12.8729 7.95625 13.1524 7.95625H21V24.175C21 24.6741 20.7951 25.1301 20.4649 25.4617L20.4608 25.4658C20.1296 25.7954 19.6751 26 19.177 26H1.82355C1.32138 26 0.865362 25.7948 0.535145 25.4643C0.204928 25.1337 0 24.6772 0 24.175V1.82504C0 1.32283 0.204928 0.866311 0.535145 0.535732C0.865362 0.205152 1.32138 0 1.82355 0ZM13.6591 0.11324C13.7057 0.144532 13.7481 0.181553 13.7854 0.223433L20.7119 6.94217H13.6591V0.11324ZM4.63167 21.314C4.35167 21.314 4.12493 21.087 4.12493 20.8072C4.12493 20.5274 4.35167 20.2999 4.63167 20.2999H16.3683C16.6483 20.2999 16.8751 20.5274 16.8751 20.8072C16.8751 21.087 16.6483 21.314 16.3683 21.314H4.63167ZM4.63167 17.4369C4.35167 17.4369 4.12493 17.2099 4.12493 16.9301C4.12493 16.6498 4.35167 16.4228 4.63167 16.4228H16.1857C16.4657 16.4228 16.6925 16.6498 16.6925 16.9301C16.6925 17.2099 16.4657 17.4369 16.1857 17.4369H4.63167ZM4.63167 13.5599C4.35167 13.5599 4.12493 13.3329 4.12493 13.0526C4.12493 12.7728 4.35167 12.5458 4.63167 12.5458H13.9807C14.2602 12.5458 14.4875 12.7728 14.4875 13.0526C14.4875 13.3329 14.2602 13.5599 13.9807 13.5599H4.63167ZM4.63167 9.68227C4.35167 9.68227 4.12493 9.45528 4.12493 9.17549C4.12493 8.89518 4.35167 8.66819 4.63167 8.66819H9.85123C10.1312 8.66819 10.358 8.89518 10.358 9.17549C10.358 9.45528 10.1312 9.68227 9.85123 9.68227H4.63167ZM4.63167 5.8052C4.35167 5.8052 4.12493 5.57821 4.12493 5.2979C4.12493 5.01811 4.35167 4.79112 4.63167 4.79112H7.44232C7.72232 4.79112 7.94906 5.01811 7.94906 5.2979C7.94906 5.57821 7.72232 5.8052 7.44232 5.8052H4.63167Z" fill="black"/>
</svg>
