<svg width="23" height="23" viewBox="0 0 23 23" fill="none" xmlns="http://www.w3.org/2000/svg">
<path fill-rule="evenodd" clip-rule="evenodd" d="M23 11.5C23 5.14917 17.8508 0 11.5 0C5.14917 0 0 5.14917 0 11.5C0 17.8508 5.14917 23 11.5 23C17.8508 23 23 17.8508 23 11.5ZM12.8757 13.9595H9.60205V13.6319C9.60205 13.076 9.66195 12.623 9.78923 12.2749C9.9165 11.9249 10.1037 11.6104 10.3526 11.3203C10.6034 11.0321 11.1668 10.5286 12.0391 9.80233C12.5033 9.42236 12.7372 9.07609 12.7372 8.76164C12.7372 8.44157 12.6418 8.19824 12.4565 8.0223C12.2693 7.84823 11.9867 7.76025 11.6067 7.76025C11.1968 7.76025 10.8617 7.89689 10.5959 8.16455C10.3283 8.43408 10.158 8.90763 10.0831 9.57959L6.73641 9.16406C6.85059 7.93433 7.29793 6.94417 8.07471 6.19735C8.85522 5.44491 10.0494 5.07243 11.6572 5.07243C12.9113 5.07243 13.922 5.33447 14.6913 5.85669C15.7395 6.56421 16.2598 7.50757 16.2598 8.68302C16.2598 9.17342 16.1232 9.6451 15.8556 10.0981C15.586 10.5548 15.0339 11.1069 14.1991 11.7602C13.6207 12.2244 13.2538 12.5912 13.1022 12.8701C12.9506 13.1471 12.8757 13.5121 12.8757 13.9595ZM9.486 14.8336H12.9974V17.9276H9.486V14.8336Z" fill="black"/>
</svg>
