<svg width="22" height="25" viewBox="0 0 22 25" fill="none" xmlns="http://www.w3.org/2000/svg">
<path fill-rule="evenodd" clip-rule="evenodd" d="M10.9621 0C15.0642 2.6886 18.77 3.96057 21.9504 3.65987C22.5059 15.2765 18.357 22.1368 11.0046 25C3.9045 22.3202 -0.295154 15.755 0.0163182 3.48368C3.74985 3.68571 7.41275 2.85116 10.9621 0ZM6.64735 13.5854C6.41517 13.3799 6.38802 13.0186 6.58655 12.7783C6.78547 12.538 7.13492 12.5102 7.3671 12.7155L9.62866 14.7245L14.5831 9.0922C14.7891 8.85824 15.1395 8.84115 15.366 9.05396C15.5921 9.26676 15.6086 9.62911 15.4028 9.86328L10.0863 15.9074L10.0859 15.907C9.88524 16.135 9.54465 16.1584 9.3166 15.9566L6.64735 13.5854Z" fill="black"/>
</svg>
