<svg width="23" height="21" viewBox="0 0 23 21" fill="none" xmlns="http://www.w3.org/2000/svg">
<path d="M13.3528 0.58529C12.8343 0.207305 12.1781 0 11.5 0C10.8219 0 10.1657 0.207305 9.64722 0.58529L1.02222 6.87992C0.702087 7.1133 0.444742 7.40436 0.268177 7.73273C0.0916115 8.0611 8.65423e-05 8.41886 0 8.78102V19.0657C0 20.1335 1.00178 21 2.23611 21H6.06944C6.6625 21 7.23126 20.7962 7.65061 20.4335C8.06997 20.0707 8.30556 19.5787 8.30556 19.0657V14.6413C8.30556 13.8897 8.99811 13.2795 9.86061 13.2597H13.1394C13.5556 13.2692 13.9512 13.4189 14.2416 13.677C14.5321 13.9351 14.6946 14.2811 14.6944 14.6413V19.0657C14.6944 20.1335 15.6962 21 16.9306 21H20.7639C21.3569 21 21.9257 20.7962 22.3451 20.4335C22.7644 20.0707 23 19.5787 23 19.0657V8.77991C22.9999 8.41776 22.9084 8.05999 22.7318 7.73162C22.5553 7.40325 22.2979 7.1122 21.9778 6.87881L13.3528 0.58529Z" fill="white"/>
</svg>
