<svg width="21" height="21" viewBox="0 0 21 21" fill="none" xmlns="http://www.w3.org/2000/svg">
<path d="M17.0705 10.8872H13.7505C11.2605 10.8872 10.0005 9.47717 10.0005 6.68717V3.81717C10.0005 2.79717 10.1205 1.33717 11.1805 0.537168C12.0705 -0.122832 13.3505 -0.172832 15.2405 0.377168C17.7205 1.09717 19.7905 3.16717 20.5105 5.64717C21.0605 7.52717 21.0105 8.81717 20.3505 9.69717C19.5505 10.7672 18.0905 10.8872 17.0705 10.8872ZM13.0305 1.49717C12.6205 1.49717 12.3005 1.57717 12.0905 1.73717C11.7005 2.02717 11.5105 2.70717 11.5105 3.81717V6.69717C11.5105 8.93717 12.3705 9.39717 13.7605 9.39717H17.0805C18.1805 9.39717 18.8605 9.20717 19.1605 8.81717C19.5105 8.35717 19.4805 7.43717 19.0905 6.08717C18.5105 4.11717 16.8105 2.40717 14.8405 1.83717C14.1005 1.60717 13.5005 1.49717 13.0305 1.49717Z" fill="white"/>
<path d="M9.82037 20.8872C9.29037 20.8872 8.75037 20.8472 8.21037 20.7572C4.12037 20.0972 0.790371 16.7772 0.130371 12.6872C-0.719629 7.42716 2.67037 2.46716 7.86037 1.40716C8.27037 1.32716 8.66037 1.58716 8.75037 1.98716C8.83037 2.39716 8.57037 2.78716 8.17037 2.87716C3.78037 3.77716 0.900371 7.97716 1.63037 12.4472C2.19037 15.9072 5.00037 18.7172 8.46037 19.2772C12.9504 19.9972 17.1404 17.1072 18.0304 12.6972C18.1104 12.2872 18.5104 12.0272 18.9104 12.1072C19.3204 12.1872 19.5804 12.5872 19.5004 12.9872C18.5504 17.6572 14.4704 20.8872 9.82037 20.8872Z" fill="white"/>
</svg>
