<svg width="19" height="21" viewBox="0 0 19 21" fill="none" xmlns="http://www.w3.org/2000/svg">
<path d="M11.3942 1.20996H5.09669C4.68902 1.20996 4.31717 1.28003 3.98115 1.41846C3.64341 1.55859 3.33127 1.77051 3.04641 2.05762L3.04812 2.05933C2.93213 2.17554 2.82979 2.29517 2.73768 2.41821C2.22255 2.43872 1.72789 2.51562 1.252 2.64893C1.26564 2.61133 1.28099 2.57373 1.29635 2.53784C1.49933 2.04565 1.79783 1.60132 2.19526 1.20483L2.19697 1.20654L2.19867 1.20483C2.5961 0.806641 3.03959 0.507568 3.52743 0.305908C4.01185 0.10083 4.53551 0 5.09669 0H7.95035H14.2479C14.8073 0 15.3327 0.10083 15.8222 0.30249C16.3135 0.505859 16.757 0.804932 17.1527 1.20142L17.151 1.20312C17.5501 1.60303 17.8486 2.04736 18.0499 2.53442C18.2512 3.0249 18.3518 3.54956 18.3518 4.11182V4.1272H17.1442V4.11182C17.1442 3.70337 17.0742 3.33081 16.9361 2.99414C16.7962 2.65576 16.5847 2.34302 16.2998 2.05762L16.2981 2.05591L16.2964 2.05762C16.0082 1.7688 15.6977 1.55688 15.3617 1.41846C15.0257 1.28003 14.6521 1.20996 14.2462 1.20996H11.3942ZM14.9353 6.82568H18.8704V7.78101L16.7263 9.96509H19V11.0793H14.7715V10.0215L16.8133 7.94165H14.9353V6.82568ZM12.4483 5.2124H14.0756V6.31812H12.4483V5.2124ZM12.4483 6.82568H14.0756V11.0793H12.4483V6.82568ZM11.401 11.0793H9.88123V10.394C9.65437 10.676 9.42751 10.8777 9.19894 10.9973C8.96867 11.1169 8.68722 11.1768 8.3512 11.1768C7.9043 11.1768 7.55463 11.0435 7.30048 10.7734C7.04632 10.5051 6.9201 10.0916 6.9201 9.53271V6.82568H8.55588V9.1687C8.55588 9.4353 8.60535 9.625 8.70258 9.73779C8.80151 9.85059 8.93797 9.90527 9.11536 9.90527C9.30811 9.90527 9.46503 9.83008 9.58955 9.6814C9.71236 9.53101 9.77377 9.2627 9.77377 8.87476V6.82397H11.401V11.0793ZM5.43101 10.218C5.65616 10.3752 5.80286 10.4744 5.87279 10.5137C5.97513 10.5718 6.115 10.6401 6.29069 10.7188L5.79092 11.7339C5.53847 11.6108 5.28773 11.4656 5.0404 11.2964C4.79307 11.1272 4.61909 10.999 4.52186 10.9153C4.12272 11.0879 3.62295 11.1768 3.01912 11.1768C2.12874 11.1768 1.42769 10.9443 0.912559 10.4795C0.303618 9.93262 0 9.16016 0 8.16553C0 7.19995 0.266092 6.44971 0.798276 5.91479C1.33046 5.37988 2.07074 5.11328 3.02594 5.11328C3.9982 5.11328 4.74701 5.37476 5.27579 5.8977C5.80456 6.41894 6.06895 7.16748 6.06895 8.13989C6.06895 9.00635 5.85573 9.69849 5.43101 10.218ZM4.04426 9.28833C4.18924 9.03027 4.26089 8.64404 4.26089 8.12793C4.26089 7.53662 4.15001 7.1145 3.93168 6.85986C3.71164 6.60693 3.40803 6.48047 3.02083 6.48047C2.65922 6.48047 2.36754 6.61035 2.14409 6.86841C1.91893 7.12646 1.80806 7.53149 1.80806 8.08008C1.80806 8.72095 1.91723 9.17041 2.13556 9.42847C2.3556 9.68652 2.6541 9.81641 3.03447 9.81641C3.15729 9.81641 3.27327 9.80444 3.38244 9.78052C3.22893 9.63354 2.99012 9.49512 2.66092 9.36353L2.94407 8.7124C3.10441 8.74146 3.23063 8.77734 3.31933 8.82007C3.40973 8.86279 3.58371 8.97388 3.84469 9.15674C3.9061 9.19946 3.97262 9.2439 4.04426 9.28833ZM2.42383 13.8547C2.56199 14.176 2.77009 14.4734 3.04471 14.7502L3.072 14.7793C3.35003 15.0493 3.65365 15.2544 3.98285 15.3894C4.31888 15.5278 4.69073 15.5979 5.09669 15.5979H7.80196C8.13628 15.5979 8.40578 15.8696 8.40578 16.2029C8.40578 16.2747 8.39384 16.3447 8.36996 16.4097C8.27103 16.7925 8.15675 17.1685 8.03052 17.5342C7.89748 17.9187 7.75249 18.2896 7.59386 18.6433C7.52563 18.8022 7.44717 18.9578 7.36018 19.1116C7.88383 18.874 8.37508 18.604 8.83562 18.2998H8.83733L8.83562 18.2981C9.34393 17.9648 9.813 17.5957 10.2463 17.189C10.6846 16.7771 11.0838 16.3276 11.4471 15.844C11.5648 15.6868 11.7456 15.603 11.9281 15.603V15.6013H14.2496C14.6555 15.6013 15.0274 15.5312 15.3634 15.3928C15.7028 15.2527 16.0167 15.0391 16.3033 14.7537C16.5881 14.4683 16.7996 14.1555 16.9395 13.8171L16.9531 13.783H18.2188C18.1744 13.9521 18.1198 14.1162 18.0533 14.2769C17.8521 14.7656 17.5518 15.2117 17.1527 15.6116C16.7536 16.0081 16.3101 16.3088 15.8222 16.5105C15.3344 16.7122 14.8108 16.8147 14.2513 16.8147H12.2215C11.865 17.2676 11.4812 17.6863 11.0701 18.0725C10.5823 18.5322 10.0569 18.9475 9.49574 19.3149L9.49403 19.3132C8.92944 19.6858 8.32732 20.0122 7.69109 20.2908C7.05485 20.5693 6.37768 20.8018 5.66299 20.988C5.45148 21.0427 5.21609 20.9795 5.06087 20.8035C4.84083 20.554 4.86471 20.1729 5.11204 19.9524C5.43101 19.6687 5.70222 19.3833 5.92737 19.0962L5.95296 19.0603C6.17982 18.7664 6.35892 18.4673 6.49026 18.1665L6.49197 18.1614C6.64036 17.8298 6.77511 17.4915 6.89281 17.1479C6.93033 17.0386 6.96786 16.9275 7.00368 16.8147H5.09669C4.53721 16.8147 4.01356 16.7122 3.52572 16.5105C3.05153 16.314 2.61998 16.0251 2.22937 15.6458C2.21573 15.6355 2.20379 15.6235 2.19185 15.6116C1.79612 15.2151 1.49592 14.7708 1.29464 14.2786C1.20594 14.0632 1.13771 13.8411 1.08654 13.6104C1.50956 13.7334 1.95475 13.8171 2.42383 13.8547Z" fill="white"/>
</svg>
