<svg width="23" height="21" viewBox="0 0 23 21" fill="none" xmlns="http://www.w3.org/2000/svg">
<path d="M11.076 14.3605C8.94323 14.3605 7.21228 12.6295 7.21228 10.4967C7.21228 8.36395 8.94323 6.633 11.076 6.633C13.2088 6.633 14.9397 8.36395 14.9397 10.4967C14.9397 12.6295 13.2088 14.3605 11.076 14.3605ZM11.076 8.17849C9.7984 8.17849 8.75777 9.21912 8.75777 10.4967C8.75777 11.7743 9.7984 12.815 11.076 12.815C12.3536 12.815 13.3942 11.7743 13.3942 10.4967C13.3942 9.21912 12.3536 8.17849 11.076 8.17849Z" fill="white"/>
<path d="M14.3834 20.9958C14.167 20.9958 13.9506 20.9649 13.7343 20.9134C13.0955 20.7382 12.5597 20.3364 12.2197 19.7697L12.096 19.5636C11.4882 18.5127 10.6536 18.5127 10.0457 19.5636L9.93236 19.7594C9.59235 20.3364 9.05658 20.7485 8.41778 20.9134C7.76867 21.0885 7.09896 20.9958 6.53228 20.6558L4.76011 19.6358C4.13161 19.2752 3.67827 18.6879 3.48251 17.9769C3.29705 17.266 3.38978 16.5345 3.75039 15.906C4.04919 15.3805 4.13161 14.9066 3.95646 14.6078C3.7813 14.309 3.33826 14.1338 2.73037 14.1338C1.22609 14.1338 0 12.9077 0 11.4034V9.59007C0 8.08579 1.22609 6.8597 2.73037 6.8597C3.33826 6.8597 3.7813 6.68455 3.95646 6.38575C4.13161 6.08696 4.05949 5.61301 3.75039 5.08754C3.38978 4.45904 3.29705 3.7172 3.48251 3.01658C3.66797 2.30565 4.12131 1.71837 4.76011 1.35775L6.54258 0.337727C7.70685 -0.352592 9.24204 0.0492356 9.94266 1.23411L10.0663 1.44018C10.6742 2.49111 11.5088 2.49111 12.1167 1.44018L12.23 1.24442C12.9306 0.0492356 14.4658 -0.352592 15.6404 0.348031L17.4125 1.36806C18.041 1.72867 18.4944 2.31596 18.6901 3.02688C18.8756 3.73781 18.7829 4.46934 18.4223 5.09784C18.1235 5.62331 18.041 6.09726 18.2162 6.39605C18.3913 6.69485 18.8344 6.87 19.4423 6.87C20.9466 6.87 22.1727 8.09609 22.1727 9.60037V11.4137C22.1727 12.918 20.9466 14.1441 19.4423 14.1441C18.8344 14.1441 18.3913 14.3193 18.2162 14.6181C18.041 14.9169 18.1132 15.3908 18.4223 15.9163C18.7829 16.5448 18.8859 17.2866 18.6901 17.9872C18.5047 18.6982 18.0513 19.2855 17.4125 19.6461L15.6301 20.6661C15.2385 20.8825 14.8161 20.9958 14.3834 20.9958ZM11.076 17.1836C11.993 17.1836 12.8482 17.7606 13.4355 18.7806L13.5488 18.9764C13.6724 19.1927 13.8785 19.3473 14.1258 19.4091C14.3731 19.4709 14.6203 19.44 14.8264 19.3164L16.6089 18.286C16.8768 18.1315 17.0828 17.8739 17.1653 17.5648C17.2477 17.2557 17.2065 16.9363 17.0519 16.6684C16.4646 15.6587 16.3925 14.6181 16.8459 13.8247C17.2992 13.0314 18.2368 12.578 19.4114 12.578C20.0708 12.578 20.5963 12.0526 20.5963 11.3931V9.57977C20.5963 8.93066 20.0708 8.39489 19.4114 8.39489C18.2368 8.39489 17.2992 7.94155 16.8459 7.14819C16.3925 6.35484 16.4646 5.31421 17.0519 4.30449C17.2065 4.0366 17.2477 3.7172 17.1653 3.4081C17.0828 3.09901 16.8871 2.85173 16.6192 2.68687L14.8367 1.66685C14.3937 1.39896 13.8064 1.55351 13.5385 2.00686L13.4252 2.20262C12.8379 3.22264 11.9827 3.79963 11.0657 3.79963C10.1487 3.79963 9.29356 3.22264 8.70627 2.20262L8.59293 1.99655C8.33535 1.56382 7.75837 1.40927 7.31533 1.66685L5.53286 2.69718C5.26497 2.85173 5.05891 3.10931 4.97648 3.41841C4.89406 3.72751 4.93527 4.04691 5.08982 4.31479C5.67711 5.32451 5.74923 6.36514 5.29588 7.1585C4.84254 7.95185 3.90494 8.40519 2.73037 8.40519C2.07096 8.40519 1.54549 8.93066 1.54549 9.59007V11.4034C1.54549 12.0526 2.07096 12.5883 2.73037 12.5883C3.90494 12.5883 4.84254 13.0417 5.29588 13.835C5.74923 14.6284 5.67711 15.669 5.08982 16.6787C4.93527 16.9466 4.89406 17.266 4.97648 17.5751C5.05891 17.8842 5.25467 18.1315 5.52256 18.2963L7.30502 19.3164C7.52139 19.4503 7.77897 19.4812 8.01595 19.4194C8.26323 19.3576 8.46929 19.1927 8.60324 18.9764L8.71657 18.7806C9.30386 17.7709 10.159 17.1836 11.076 17.1836Z" fill="white"/>
</svg>
